<svg width="79" height="116" viewBox="0 0 79 116" fill="none" xmlns="http://www.w3.org/2000/svg">
<path d="M20.095 114V4.45H11.66L0.355 13.585L0.11 10.75L10.575 2H23.14V114H20.095ZM8.02 114V37L9.805 18.03L9 17.96L1.23 23.665L1.02 20.935L11.415 13.69H12.22L11.03 35.6V114H8.02ZM14.075 114V34.2L14.53 9.45499H13.725L0.775 18.73L0.565 15.965L12.78 6.89999H17.12L17.085 32.8V114H14.075ZM53.8648 115.19C45.5348 115.19 39.5265 113.37 35.8398 109.73C32.1765 106.09 30.1815 100.152 29.8548 91.915C29.7382 89.1617 29.6915 86.2683 29.7148 83.235C29.7615 80.2017 29.8782 76.7717 30.0648 72.945C30.2982 68.8383 31.3132 65.42 33.1098 62.69C34.9065 59.96 37.2515 57.755 40.1448 56.075V55.655C37.4615 54.5583 35.2332 52.47 33.4598 49.39C31.6865 46.2867 30.6598 42.7283 30.3798 38.715C30.2632 36.4517 30.1932 33.99 30.1698 31.33C30.1698 28.6467 30.2398 26.2433 30.3798 24.12C30.9865 15.7433 33.1215 9.77 36.7848 6.19999C40.4482 2.60666 46.1415 0.809993 53.8648 0.809993C61.7048 0.809993 67.4332 2.62999 71.0498 6.27C74.6898 9.91 76.7782 15.8483 77.3148 24.085C77.4548 26.2783 77.5248 28.5767 77.5248 30.98C77.5248 33.36 77.4548 35.95 77.3148 38.75C77.0582 42.88 76.0198 46.4617 74.1998 49.495C72.4032 52.5283 70.1865 54.5817 67.5498 55.655V56.075C70.5365 57.335 72.8932 59.3883 74.6198 62.235C76.3698 65.0583 77.3848 68.6633 77.6648 73.05C77.8982 76.9933 78.0148 80.4817 78.0148 83.515C78.0148 86.5483 77.9565 89.4067 77.8398 92.09C77.5365 100.21 75.5415 106.09 71.8548 109.73C68.1682 113.37 62.1715 115.19 53.8648 115.19ZM53.8648 107.805C59.1848 107.805 63.0115 106.533 65.3448 103.99C67.6782 101.423 68.9498 97.2817 69.1598 91.565C69.2532 89.325 69.2882 86.7467 69.2648 83.83C69.2648 80.9133 69.1715 77.5183 68.9848 73.645C68.5648 67.7183 67.1765 63.46 64.8198 60.87C62.4865 58.2567 58.8348 56.95 53.8648 56.95C48.9182 56.95 45.2665 58.245 42.9098 60.835C40.5532 63.425 39.1648 67.7183 38.7448 73.715C38.5582 77.145 38.4532 80.33 38.4298 83.27C38.4065 86.21 38.4532 88.975 38.5698 91.565C38.7798 97.1417 40.0165 101.248 42.2798 103.885C44.5432 106.498 48.4048 107.805 53.8648 107.805ZM53.8648 105.355C49.6648 105.355 46.5848 104.293 44.6248 102.17C42.6882 100.023 41.6265 96.43 41.4398 91.39C41.3465 89.3133 41.3115 86.7117 41.3348 83.585C41.3815 80.4583 41.4748 77.2383 41.6148 73.925C41.8948 68.5583 43.0032 64.755 44.9398 62.515C46.8998 60.2517 49.8748 59.12 53.8648 59.12C58.0648 59.12 61.0865 60.31 62.9298 62.69C64.7732 65.0467 65.8232 68.7917 66.0798 73.925C66.2898 77.495 66.3948 80.7383 66.3948 83.655C66.3948 86.5717 66.3482 89.1383 66.2548 91.355C66.0682 96.3717 65.0182 99.965 63.1048 102.135C61.1915 104.282 58.1115 105.355 53.8648 105.355ZM53.8648 102.905C57.0615 102.905 59.4065 102.018 60.8998 100.245C62.3932 98.4483 63.2215 95.4733 63.3848 91.32C63.4548 89.5933 63.4898 87.2017 63.4898 84.145C63.4898 81.065 63.3848 77.7167 63.1748 74.1C62.8015 69.41 61.9382 66.1783 60.5848 64.405C59.2548 62.6317 57.0148 61.745 53.8648 61.745C50.7148 61.745 48.4748 62.6317 47.1448 64.405C45.8148 66.1783 44.9398 69.41 44.5198 74.1C44.3332 77.53 44.2282 80.75 44.2048 83.76C44.2048 86.7467 44.2515 89.325 44.3448 91.495C44.5082 95.5317 45.3248 98.4483 46.7948 100.245C48.2648 102.018 50.6215 102.905 53.8648 102.905ZM53.8648 112.705C61.0748 112.705 66.3132 111.107 69.5798 107.91C72.8698 104.69 74.6548 99.3233 74.9348 91.81C75.0515 89.43 75.0982 86.77 75.0748 83.83C75.0515 80.89 74.9582 77.3783 74.7948 73.295C74.5382 69.0017 73.3715 65.2917 71.2948 62.165C69.2415 59.0383 66.6515 57.0083 63.5248 56.075V55.48C67.2348 54.29 69.8948 52.295 71.5048 49.495C73.1382 46.695 74.1065 43.1017 74.4098 38.715C74.5498 36.2883 74.6198 33.8617 74.6198 31.435C74.6198 29.0083 74.5498 26.605 74.4098 24.225C73.9198 16.6183 72.0415 11.2283 68.7748 8.05499C65.5315 4.88166 60.5615 3.295 53.8648 3.295C47.0748 3.295 42.0698 4.905 38.8498 8.125C35.6298 11.3217 33.7748 16.7233 33.2848 24.33C33.1682 26.3833 33.0982 28.5767 33.0748 30.91C33.0748 33.2433 33.1448 35.8217 33.2848 38.645C33.6115 43.055 34.5798 46.66 36.1898 49.46C37.7998 52.26 40.4598 54.2667 44.1698 55.48V56.075C41.0432 57.0317 38.4532 59.0733 36.3998 62.2C34.3465 65.3033 33.2032 68.9667 32.9698 73.19C32.7598 77.2733 32.6432 80.7733 32.6198 83.69C32.5965 86.5833 32.6432 89.2667 32.7598 91.74C33.0632 99.1833 34.8248 104.538 38.0448 107.805C41.2648 111.072 46.5382 112.705 53.8648 112.705ZM53.8648 110.255C47.6348 110.255 43.1082 108.832 40.2848 105.985C37.4615 103.115 35.9098 98.3433 35.6298 91.67C35.5365 89.22 35.5015 86.5133 35.5248 83.55C35.5482 80.5867 35.6532 77.25 35.8398 73.54C36.1198 68.64 37.2398 64.79 39.1998 61.99C41.1832 59.1667 43.6798 57.16 46.6898 55.97V55.515C43.5632 54.465 41.0898 52.6567 39.2698 50.09C37.4732 47.5 36.4465 43.6383 36.1898 38.505C36.0732 36.0317 36.0148 33.6283 36.0148 31.295C36.0148 28.9617 36.0732 26.71 36.1898 24.54C36.4932 17.68 38.0565 12.8383 40.8798 10.015C43.7032 7.16833 48.0315 5.74499 53.8648 5.74499C59.9782 5.74499 64.3765 7.22666 67.0598 10.19C69.7432 13.13 71.2365 17.9133 71.5398 24.54C71.6332 26.85 71.6798 29.0783 71.6798 31.225C71.6798 33.3717 71.6332 35.7983 71.5398 38.505C71.2832 43.545 70.2682 47.3717 68.4948 49.985C66.7448 52.5983 64.2598 54.4417 61.0398 55.515V55.97C64.0032 57.1367 66.4765 59.12 68.4598 61.92C70.4432 64.6967 71.5865 68.5467 71.8898 73.47C72.1232 77.7167 72.2282 81.205 72.2048 83.935C72.2048 86.665 72.1582 89.2433 72.0648 91.67C71.8082 98.2033 70.3032 102.94 67.5498 105.88C64.7965 108.797 60.2348 110.255 53.8648 110.255ZM53.8648 54.29C59.1615 54.29 62.8715 53.0533 64.9948 50.58C67.1415 48.1067 68.3548 44.0467 68.6348 38.4C68.7515 35.81 68.7982 33.4533 68.7748 31.33C68.7748 29.1833 68.7282 27.025 68.6348 24.855C68.3782 18.8817 67.0948 14.6117 64.7848 12.045C62.4982 9.47833 58.8582 8.19499 53.8648 8.19499C48.8482 8.19499 45.1965 9.47833 42.9098 12.045C40.6465 14.6117 39.3632 18.8583 39.0598 24.785C38.9665 27.1417 38.9198 29.335 38.9198 31.365C38.9198 33.3717 38.9782 35.7167 39.0948 38.4C39.3515 44.14 40.5648 48.2233 42.7348 50.65C44.9282 53.0767 48.6382 54.29 53.8648 54.29ZM53.8648 52.225C49.8048 52.225 46.8648 51.1983 45.0448 49.145C43.2248 47.0917 42.1982 43.475 41.9648 38.295C41.8715 35.8917 41.8248 33.535 41.8248 31.225C41.8248 28.915 41.8715 26.8267 41.9648 24.96C42.2215 19.8267 43.2598 16.1633 45.0798 13.97C46.9232 11.7533 49.8515 10.645 53.8648 10.645C57.8548 10.645 60.7715 11.7533 62.6148 13.97C64.4582 16.1867 65.4965 19.8383 65.7298 24.925C65.8232 27.0717 65.8698 29.16 65.8698 31.19C65.8932 33.1967 65.8465 35.5767 65.7298 38.33C65.4965 43.44 64.4815 47.0333 62.6848 49.11C60.9115 51.1867 57.9715 52.225 53.8648 52.225ZM53.8648 49.67C57.2482 49.67 59.5348 48.9 60.7248 47.36C61.9382 45.7967 62.6498 42.7283 62.8598 38.155C62.9298 36.2883 62.9765 34.6433 62.9998 33.22C63.0232 31.7967 63.0232 30.455 62.9998 29.195C62.9765 27.9117 62.9298 26.57 62.8598 25.17C62.6265 20.62 61.7748 17.47 60.3048 15.72C58.8582 13.97 56.7115 13.095 53.8648 13.095C50.8782 13.095 48.6848 14.0283 47.2848 15.895C45.8848 17.7383 45.0798 20.795 44.8698 25.065C44.7765 27.2117 44.7182 29.265 44.6948 31.225C44.6948 33.1617 44.7532 35.5183 44.8698 38.295C45.0798 42.7983 45.7915 45.82 47.0048 47.36C48.2415 48.9 50.5282 49.67 53.8648 49.67Z" fill="white"/>
</svg>
