<svg width="49" height="48" viewBox="0 0 49 48" fill="none" xmlns="http://www.w3.org/2000/svg">
<path d="M8.18292 0.0188332C6.7638 0.14101 5.82399 0.488739 5.50445 1.01504C5.2601 1.40976 5.2695 1.98304 5.51385 2.39656C5.62663 2.57513 6.67922 3.67471 7.86339 4.84008C9.03815 6.00545 10.0719 7.09563 10.1565 7.2742C10.3727 7.70651 10.4385 8.58054 10.2975 9.03165C10.0156 9.92447 9.35769 10.3756 8.37089 10.385C7.39348 10.385 7.12093 10.1876 4.7526 7.8005C3.58723 6.63512 2.47825 5.59193 2.29029 5.48855C1.31288 4.98105 0.457651 5.60133 0.138114 7.03925C-0.0686448 7.95086 -0.0310522 9.89628 0.213299 10.8079C0.861771 13.2138 2.39367 15.1217 4.56464 16.2118C5.51385 16.6911 6.32209 16.9261 7.46866 17.0671C8.57765 17.1986 9.76181 17.0953 10.8144 16.7663L11.4535 16.569L12.647 17.7625L13.8312 18.9467L13.6714 19.5764C13.5681 19.9617 13.5023 20.5726 13.4929 21.1459C13.4741 23.627 12.7598 24.9051 9.53625 28.1851L7.60964 30.1493L7.11154 30.0271C6.52885 29.8861 5.92737 29.9519 5.42927 30.2057C4.92177 30.4688 0.946354 34.5006 0.76779 34.9329C0.561031 35.4216 0.579827 36.2769 0.805382 36.7938C1.06853 37.3858 11.2655 47.517 11.8952 47.8084C12.3745 48.0339 13.0794 48.0621 13.6432 47.8836C13.9252 47.7896 14.4985 47.2821 16.1525 45.6374C17.3367 44.4626 18.3893 43.3443 18.5021 43.1375C18.7276 42.6958 18.7746 41.6808 18.5773 41.3143C18.4551 41.0887 18.5303 41.0041 21.0208 38.5324C23.5771 35.9855 24.094 35.572 24.6485 35.572C24.7894 35.572 25.3721 35.6378 25.9266 35.7318C27.1578 35.9291 27.8532 35.8352 29.0844 35.3371L29.8926 35.0081L30.6727 35.7882L31.4621 36.5776L31.2648 37.1979C31.0204 37.9873 30.8418 39.3219 30.9076 39.8858C31.0298 41.0041 32.2892 40.882 32.2892 39.7448C32.2986 38.9647 32.4677 38.0155 32.7685 37.1509C33.0034 36.4648 33.0316 36.2863 32.9376 36.1171C32.8812 35.9949 30.2967 33.3916 27.1954 30.3184C23.3045 26.4558 21.5753 24.689 21.6129 24.5856C21.6317 24.501 21.7632 24.1251 21.9042 23.7397C22.0452 23.3544 22.1768 22.8187 22.2049 22.5368C22.2331 22.2642 22.2707 22.0387 22.2895 22.0387C22.3083 22.0387 22.6373 22.2454 23.032 22.4992C24.3007 23.3262 25.983 23.8243 27.0638 23.6928L27.5619 23.627L27.6183 24.0875C27.778 25.4126 28.887 26.578 30.2216 26.8129C30.5223 26.8693 30.6351 26.9351 30.6069 27.0291C30.5881 27.1043 30.5787 27.4426 30.5787 27.7903C30.5787 29.3034 31.7065 30.497 33.2572 30.6474L33.8398 30.7132L34.977 31.8221C35.8417 32.6774 36.1706 32.9405 36.3586 32.9405C36.4901 32.9405 36.9976 32.809 37.4769 32.6398C38.2852 32.3578 38.4449 32.339 39.6197 32.3296C41.0858 32.3296 41.7531 32.4894 43.05 33.1567C44.0932 33.6924 45.2586 34.8577 45.7943 35.9009C46.4428 37.1603 46.6213 37.8745 46.6119 39.2373C46.6119 40.2147 46.4803 41.2109 46.3488 41.2109C46.33 41.2109 45.3244 40.2241 44.1214 39.0211C41.7249 36.634 41.4335 36.4178 40.2682 36.2393C39.2438 36.0701 38.2664 36.3239 37.3923 36.9629C37.1104 37.1697 36.9036 37.4516 36.6405 37.9779C36.3022 38.6828 36.2834 38.7486 36.2834 39.6602C36.2834 40.5342 36.3022 40.647 36.6029 41.2579C36.8754 41.85 37.148 42.1507 39.1216 44.0867L41.3302 46.2671L40.973 46.3893C40.7287 46.4832 40.1648 46.5208 39.2438 46.5208C38.0032 46.5114 37.8153 46.4926 37.1292 46.2577C35.6255 45.7314 34.3755 44.7916 33.5485 43.5322C32.9 42.5736 32.7685 42.4326 32.4583 42.4326C32.1388 42.4326 31.7253 42.7992 31.7253 43.0905C31.7253 43.5228 32.6745 44.8762 33.5673 45.7314C34.4977 46.6054 35.4939 47.1975 36.7063 47.5828C38.9994 48.3253 42.035 47.987 42.5801 46.9438C42.7681 46.5866 42.7587 46.0697 42.5707 45.6938C42.4861 45.5246 41.396 44.3593 40.146 43.0905C38.2664 41.1921 37.8529 40.7222 37.7589 40.4026C37.3266 38.8895 38.1536 37.6396 39.6009 37.6114C40.6065 37.5926 40.6817 37.649 43.238 40.1771C45.7003 42.6112 45.9635 42.8086 46.5931 42.677C47.298 42.536 47.7209 41.9064 47.9371 40.6752C48.2942 38.711 47.9089 36.681 46.8469 34.8859C46.33 33.9931 44.9578 32.621 44.065 32.1041C42.2512 31.0327 40.2306 30.6568 38.2006 31.0139C37.7589 31.0891 37.2138 31.2113 36.9882 31.2959L36.5747 31.4462L35.9168 30.779L35.2496 30.1211L37.289 28.0817C39.6197 25.7322 39.7513 25.5536 39.7513 24.3882C39.7607 23.4578 39.4975 22.8563 38.8115 22.236C38.2758 21.7473 37.6555 21.4748 37.0822 21.4748H36.7345L36.6875 20.7793C36.5935 19.3132 35.5879 18.1385 34.1688 17.8471C33.6895 17.7531 33.6519 17.7249 33.6989 17.5182C33.7271 17.396 33.7459 16.9731 33.7365 16.5878C33.7271 15.6949 33.4263 15.0089 32.7591 14.3886C32.1576 13.8247 31.5655 13.5616 30.7573 13.5052C30.2404 13.4676 30.1276 13.43 30.1746 13.3172C30.2028 13.242 30.1746 12.9225 30.1182 12.6029C29.8362 11.0053 28.5393 9.91508 26.9322 9.91508C25.7668 9.91508 25.3909 10.1218 23.8684 11.6255C23.1448 12.3398 22.5151 12.9225 22.4775 12.9225C22.4399 12.9225 22.2519 12.8003 22.064 12.6405C21.876 12.4902 21.5189 12.321 21.2745 12.274C20.4851 12.0954 19.9212 12.3022 19.1506 13.0447L18.6618 13.5334L17.6187 12.4902L16.5755 11.447L16.7728 10.8173C18.0604 6.63513 15.7672 2.03004 11.6508 0.526333C10.5888 0.14101 9.17913 -0.0657501 8.18292 0.0188332ZM10.3727 1.60712C10.758 1.6917 11.4347 1.94545 11.9234 2.1898C12.6376 2.53754 12.9384 2.76309 13.6338 3.46795C14.8556 4.69911 15.4477 5.89267 15.6638 7.58434C15.7954 8.59933 15.6732 9.66133 15.3161 10.6951C14.9026 11.8605 14.818 11.6443 16.3217 13.1668L17.675 14.5202L16.0962 16.0991L14.5267 17.6685L13.2203 16.3622C11.7354 14.8773 11.8012 14.9055 10.7016 15.3002C7.18672 16.569 3.27709 14.8115 1.86737 11.3248C1.58543 10.6105 1.36927 9.51096 1.36927 8.75911C1.36927 8.12943 1.52904 7.11443 1.65121 6.89827C1.717 6.79489 2.2433 7.2742 3.97256 8.99406C6.67922 11.6819 6.7732 11.7477 8.3239 11.7477C9.23551 11.7477 9.35769 11.7289 9.92158 11.4564C10.6922 11.0898 11.0963 10.6857 11.4629 9.91508C11.726 9.36059 11.7542 9.21961 11.7542 8.36438C11.7542 7.49975 11.726 7.37758 11.4441 6.7667C11.1715 6.19341 10.8896 5.86448 8.98176 3.94726C7.7882 2.75369 6.82019 1.74809 6.82019 1.7199C6.82019 1.65411 7.61903 1.47554 8.18292 1.42855C8.73741 1.37217 9.59264 1.44735 10.3727 1.60712ZM28.0224 11.6631C28.7085 12.2082 28.9622 13.2232 28.5957 13.9093C28.5111 14.0691 27.919 14.7175 27.2799 15.3566C26.2743 16.3528 26.0864 16.5032 25.936 16.4186C25.8326 16.3622 25.2405 15.7983 24.6109 15.1592L23.4549 14.0033L24.6579 12.8097C25.3157 12.1518 25.983 11.5504 26.1334 11.4658C26.3307 11.3624 26.6033 11.3248 27.045 11.3436C27.5807 11.3718 27.7217 11.4188 28.0224 11.6631ZM24.8458 17.3772C26.8664 19.4072 28.5299 21.1271 28.5299 21.2022C28.5299 21.2868 28.3701 21.5218 28.1822 21.7285C27.4585 22.5086 26.1146 22.4898 24.4887 21.691C23.6805 21.2962 23.4737 21.1271 22.2707 19.9523C21.1336 18.8433 20.8986 18.6553 20.6449 18.6553C20.3253 18.6553 19.987 18.9279 19.9682 19.191C19.9494 19.5106 19.9964 19.6422 20.3065 20.0651C20.7106 20.6384 20.8234 21.0049 20.8234 21.8037C20.8234 22.9691 20.3723 24.0781 19.4701 25.1213C18.9344 25.7416 18.8592 26.0141 19.1036 26.343C19.2351 26.5216 19.3949 26.6062 19.6393 26.625C19.9494 26.6532 20.034 26.6062 20.3629 26.2584L20.7388 25.8543L24.7894 29.9049L28.84 33.9555L28.013 34.2187L27.1954 34.4724L25.889 34.3033C24.3101 34.0965 23.8496 34.1623 23.0132 34.7356C22.7124 34.9517 21.3685 36.2111 20.0246 37.555L17.5811 39.9891L15.6732 38.1377C14.0286 36.5588 13.7184 36.2957 13.4741 36.2957C13.1169 36.2957 12.835 36.6058 12.835 37.0099C12.835 37.2637 13.1169 37.5832 15.0342 39.5192C16.3969 40.882 17.2615 41.8218 17.2991 41.9721C17.3367 42.1225 17.3085 42.3293 17.2145 42.489C17.0078 42.8838 13.3989 46.4457 13.0888 46.5584C12.8914 46.6336 12.7504 46.6242 12.5249 46.5302C12.3557 46.4551 10.025 44.1901 7.13033 41.2861C2.11172 36.2675 2.02714 36.1735 2.02714 35.807C2.02714 35.4498 2.10233 35.3652 4.07594 33.3916C6.04015 31.418 6.13413 31.3428 6.49126 31.3428C6.83899 31.3428 6.93297 31.418 8.83139 33.3071C9.92158 34.3878 10.9084 35.2995 11.0212 35.3277C11.2843 35.4122 11.773 35.1679 11.8482 34.9047C11.8858 34.8014 11.8858 34.6228 11.8576 34.51C11.8294 34.3972 11.0869 33.589 10.2129 32.715L8.61524 31.1173L10.6076 29.0873C14.0004 25.6382 14.7428 24.3224 14.9026 21.4278C14.9684 20.0463 15.0624 19.6422 15.4195 18.9279C15.6075 18.5614 20.2971 13.7965 20.5885 13.6743C20.6918 13.6273 20.861 13.6179 20.9644 13.6461C21.0678 13.6649 22.8158 15.3472 24.8458 17.3772ZM31.2366 15.0371C32.2046 15.4506 32.6369 16.5408 32.2046 17.4806C32.1012 17.6967 31.5185 18.3546 30.823 19.0407L29.6107 20.2248L28.3513 18.9185L27.092 17.6028L28.2574 16.428C28.8964 15.7889 29.5731 15.178 29.7517 15.0841C30.1558 14.8679 30.7667 14.8491 31.2366 15.0371ZM33.9338 19.2286C35.0146 19.5294 35.5879 20.6947 35.1556 21.7285C34.977 22.1609 32.3173 24.8675 31.7441 25.2059C30.6069 25.8825 29.1502 25.1401 29.0186 23.8337C28.9434 23.0067 29.0844 22.7811 30.7291 21.1177C32.1764 19.6516 32.5053 19.379 33.041 19.2098C33.3793 19.1065 33.5109 19.1159 33.9338 19.2286ZM37.5427 23.0255C37.9562 23.2322 38.2852 23.6928 38.351 24.1439C38.4637 24.8675 38.2288 25.1871 36.18 27.2265C34.1688 29.2095 33.9244 29.3692 33.182 29.2377C32.6933 29.1437 32.1482 28.6174 32.0166 28.1193C31.8192 27.3298 31.932 27.1607 33.962 25.1025C34.9864 24.0781 35.945 23.1571 36.0954 23.0631C36.4337 22.8469 37.1668 22.8281 37.5427 23.0255Z" fill="#45c13b"/>
</svg>
