<svg width="37" height="50" viewBox="0 0 37 50" fill="none" xmlns="http://www.w3.org/2000/svg">
<path d="M1.90253 0.414062C1.258 0.714844 0.96796 1.01562 0.677921 1.66016C0.269718 2.5625 0.463077 3.81934 1.12909 4.5498C1.54804 5.00098 2.36444 5.3125 3.15937 5.3125H3.86835L3.94355 6.24707C4.34101 11.7148 5.7912 16.2588 8.30487 19.9971C8.93866 20.9424 9.57245 21.7051 11.216 23.542C11.9142 24.3154 12.4836 25.0029 12.4836 25.0781C12.4836 25.1426 11.8283 25.9268 11.0226 26.8291C10.217 27.7314 9.26093 28.8701 8.88495 29.3535C6.04902 33.1348 4.37323 38.0332 3.94355 43.8984C3.87909 44.7578 3.84687 44.8438 3.65351 44.8438C2.79413 44.8438 1.68769 45.6816 1.44062 46.5195C1.27948 47.0889 1.27948 47.7549 1.44062 48.3242C1.61249 48.9043 2.40741 49.6992 2.98749 49.8711C3.3205 49.9678 5.73749 50 12.8488 50H22.2697L22.5275 49.7314C22.882 49.3877 22.882 48.8936 22.5275 48.5498L22.2697 48.2812H12.881H3.49237L3.26679 48.0342C2.94452 47.6904 2.95526 47.0996 3.27753 46.7988L3.5246 46.5625H18.51H33.506L33.7316 46.8096C34.0539 47.1533 34.0432 47.7441 33.7209 48.0449C33.4738 48.2812 33.4309 48.2812 29.2521 48.2812H25.0412L24.7834 48.5498C24.4289 48.8936 24.4289 49.3877 24.7834 49.7314L25.0412 50H29.3058C32.3459 50 33.6887 49.9678 34.0109 49.8711C34.591 49.6992 35.3859 48.9043 35.5578 48.3242C35.7189 47.7549 35.7189 47.0889 35.5578 46.5195C35.3107 45.6816 34.2043 44.8438 33.3449 44.8438C33.1516 44.8438 33.1193 44.7578 33.0656 44.0059C32.6037 38.2803 31.2287 33.9297 28.6935 30.1592C28.0598 29.2139 27.426 28.4512 25.7824 26.6143C25.0842 25.8408 24.5148 25.1426 24.5148 25.0781C24.5148 25.0137 25.0842 24.3154 25.7824 23.542C27.426 21.7051 28.0598 20.9424 28.6935 19.9971C31.2287 16.2266 32.6037 11.876 33.0656 6.13965L33.1301 5.3125H33.8391C34.634 5.3125 35.4504 5.00098 35.8693 4.5498C36.5353 3.81934 36.7287 2.5625 36.3205 1.66016C36.0305 1.01562 35.7404 0.714844 35.0959 0.414062L34.5588 0.15625H23.7844H13.01L12.7521 0.424805C12.5803 0.585938 12.4836 0.811523 12.4836 1.01562C12.4836 1.21973 12.5803 1.44531 12.7521 1.60645L13.01 1.875H23.6555H34.301L34.5588 2.14355C34.9133 2.4873 34.9133 2.98145 34.5588 3.3252L34.301 3.59375H18.4992H2.69745L2.43964 3.3252C2.26776 3.16406 2.17109 2.93848 2.17109 2.73438C2.17109 2.53027 2.26776 2.30469 2.43964 2.14355L2.69745 1.875H5.1789H7.66034L7.91816 1.60645C8.09003 1.44531 8.18671 1.21973 8.18671 1.01562C8.18671 0.811523 8.09003 0.585938 7.91816 0.424805L7.66034 0.15625H5.04999C2.53632 0.15625 2.41816 0.166992 1.90253 0.414062ZM31.3361 6.30078C31.1105 9.5127 30.3478 12.7461 29.1662 15.5068C28.1242 17.9561 27.1144 19.4492 24.4611 22.4463C22.6779 24.4658 22.4738 24.7451 22.4738 25.0781C22.4738 25.4111 22.6242 25.626 23.6125 26.7432C26.5129 29.998 27.1037 30.7607 28.1564 32.5762C29.8107 35.4229 31.0461 39.8057 31.3361 43.8447L31.4113 44.8438H18.4992H5.5871L5.6623 43.8447C6.02753 38.7852 7.57441 34.1553 10.0988 30.6104C10.3889 30.1914 11.506 28.8701 12.5803 27.6562C14.3098 25.6904 14.5246 25.4111 14.5246 25.0781C14.5246 24.7451 14.3098 24.4658 12.5803 22.5C11.506 21.2861 10.3889 19.9541 10.0988 19.5459C7.57441 16.001 6.02753 11.3711 5.6623 6.30078L5.5871 5.3125H18.4992H31.4113L31.3361 6.30078Z" fill="#45c13b"/>
<path d="M9.31543 7.29986C9.04688 7.55767 9.04688 7.5899 9.04688 9.3731C9.04688 11.4786 9.21875 12.7032 9.70215 13.8956C11.5928 18.6329 16.7383 21.0176 21.583 19.3848C23.957 18.5899 26.1162 16.6133 27.1475 14.2715C27.7383 12.9288 27.8672 12.1983 27.9209 9.80279L27.9746 7.57916L27.7061 7.3106L27.4268 7.03131H18.5H9.57324L9.31543 7.29986ZM26.2129 10.3292C26.1592 11.629 26.1055 12.0694 25.8799 12.7462C25.4717 14.0137 24.9023 14.9268 23.9355 15.9044C22.9688 16.8712 22.0557 17.4405 20.7773 17.8594C20.0576 18.0958 19.7676 18.1387 18.5 18.1387C17.2324 18.1387 16.9424 18.0958 16.2227 17.8594C14.9443 17.4405 14.0312 16.8712 13.0645 15.9044C12.0977 14.9268 11.5283 14.0137 11.1201 12.7462C10.8945 12.0694 10.8408 11.629 10.7871 10.3292L10.7334 8.75006H18.5H26.2666L26.2129 10.3292Z" fill="#45c13b"/>
<path d="M17.9092 21.9092C17.6514 22.1562 17.6406 22.2422 17.6406 23.3594C17.6406 24.4766 17.6514 24.5625 17.9092 24.8096C18.0703 24.9814 18.2959 25.0781 18.5 25.0781C18.7041 25.0781 18.9297 24.9814 19.0908 24.8096C19.3486 24.5625 19.3594 24.4766 19.3594 23.3594C19.3594 22.2422 19.3486 22.1562 19.0908 21.9092C18.9297 21.7373 18.7041 21.6406 18.5 21.6406C18.2959 21.6406 18.0703 21.7373 17.9092 21.9092Z" fill="#45c13b"/>
<path d="M17.9092 27.9248C17.6514 28.1719 17.6406 28.2578 17.6406 29.375C17.6406 30.4922 17.6514 30.5781 17.9092 30.8252C18.0703 30.9971 18.2959 31.0938 18.5 31.0938C18.7041 31.0938 18.9297 30.9971 19.0908 30.8252C19.3486 30.5781 19.3594 30.4922 19.3594 29.375C19.3594 28.2578 19.3486 28.1719 19.0908 27.9248C18.9297 27.7529 18.7041 27.6562 18.5 27.6562C18.2959 27.6562 18.0703 27.7529 17.9092 27.9248Z" fill="#45c13b"/>
<path d="M14.6113 33.8438C13.2363 34.166 11.8184 35.1973 11.1201 36.3682C10.7549 36.9805 9.04688 41.9004 9.04688 42.3408C9.04688 42.4805 9.16504 42.7168 9.31543 42.8564L9.57324 43.125H18.5H27.4268L27.6846 42.8564C27.835 42.7168 27.9531 42.4805 27.9531 42.3408C27.9531 41.9541 26.2666 37.0127 25.9443 36.4648C25.2031 35.208 23.7959 34.1768 22.3564 33.833C21.4111 33.6182 15.5244 33.6182 14.6113 33.8438ZM22.6357 35.7451C23.3125 36.0566 24.0537 36.7119 24.4189 37.292C24.5371 37.4854 24.9238 38.4844 25.2676 39.5264L25.9014 41.4063H18.5H11.0986L11.7217 39.5479C12.0654 38.5273 12.4092 37.5713 12.4844 37.4316C12.7207 36.9805 13.5908 36.1318 14.042 35.8955C14.9766 35.4229 15.1699 35.4014 18.6611 35.4229L21.9912 35.4443L22.6357 35.7451Z" fill="#45c13b"/>
<path d="M9.31529 0.424805C8.77818 0.951172 9.15415 1.875 9.90611 1.875C10.3465 1.875 10.7655 1.45605 10.7655 1.01562C10.7655 0.575195 10.3465 0.15625 9.90611 0.15625C9.702 0.15625 9.47642 0.25293 9.31529 0.424805Z" fill="#45c13b"/>
</svg>
