<svg width="16" height="18" viewBox="0 0 16 18" fill="none" xmlns="http://www.w3.org/2000/svg">
<path d="M9 0.999817C9 0.447532 8.55228 -0.00018313 8 -0.000183105C7.44772 -0.000183081 7 0.447532 7 0.999817L9 0.999817ZM7.29289 17.6941C7.68342 18.0846 8.31658 18.0846 8.70711 17.6941L15.0711 11.3301C15.4616 10.9396 15.4616 10.3064 15.0711 9.91591C14.6805 9.52539 14.0474 9.52539 13.6569 9.91591L8 15.5728L2.34315 9.91591C1.95262 9.52539 1.31946 9.52539 0.928933 9.91591C0.538408 10.3064 0.538408 10.9396 0.928933 11.3301L7.29289 17.6941ZM7 0.999817L7 16.987L9 16.987L9 0.999817L7 0.999817Z" fill="#0B0B0B"/>
</svg>
