<svg width="20" height="20" viewBox="0 0 20 20" fill="none" xmlns="http://www.w3.org/2000/svg">
<path d="M14.2228 3.64697V1.20264M5.40759 3.64697V1.20264M1.24487 7.31347H18.3855M1 9.81158C1 7.2267 1 5.93365 1.42705 4.94614C1.81298 4.06512 2.41223 3.35888 3.13915 2.92834C3.97757 2.4248 5.07457 2.4248 7.26858 2.4248H12.3618C14.5558 2.4248 15.6528 2.4248 16.4912 2.92834C17.2288 3.37076 17.8272 4.07717 18.2033 4.94491C18.6304 5.93487 18.6304 7.22792 18.6304 9.81281V11.8161C18.6304 14.401 18.6304 15.694 18.2033 16.6815C17.8174 17.5626 17.2181 18.2688 16.4912 18.6993C15.6528 19.2017 14.5558 19.2017 12.3618 19.2017H7.26858C5.07457 19.2017 3.97757 19.2017 3.13915 18.6981C2.41238 18.2679 1.81314 17.5621 1.42705 16.6815C1 15.6916 1 14.3985 1 11.8136V9.81158Z" stroke="#161616" stroke-width="1.2" stroke-linecap="round" stroke-linejoin="round"/>
</svg>
