<svg width="18" height="18" viewBox="0 0 18 18" fill="none" xmlns="http://www.w3.org/2000/svg">
<g clip-path="url(#clip0_459_1640)">
<path d="M9.27372 16.8371L9.28116 16.8423C9.92362 17.2515 10.6865 17.4291 11.4436 17.346C12.2008 17.2628 12.9068 16.9238 13.4453 16.385L13.9137 15.9173C14.0174 15.8137 14.0996 15.6907 14.1557 15.5554C14.2118 15.42 14.2407 15.2749 14.2407 15.1284C14.2407 14.9819 14.2118 14.8367 14.1557 14.7014C14.0996 14.566 14.0174 14.443 13.9137 14.3394L11.9402 12.3682C11.7311 12.1591 11.4474 12.0416 11.1517 12.0416C10.8559 12.0416 10.5723 12.1591 10.3631 12.3682C10.2595 12.4718 10.1365 12.5541 10.0011 12.6101C9.86577 12.6663 9.72069 12.6951 9.57413 12.6951C9.42757 12.6951 9.28249 12.6663 9.14716 12.6101C9.01175 12.5541 8.88876 12.4718 8.78518 12.3682L5.63087 9.2131C5.42177 9.00393 5.3043 8.72032 5.3043 8.42452C5.3043 8.1288 5.42177 7.84512 5.63087 7.63595C5.73452 7.53237 5.81675 7.40941 5.87285 7.27403C5.92894 7.13866 5.95782 6.99356 5.95782 6.84703C5.95782 6.70049 5.92894 6.55539 5.87285 6.42002C5.81675 6.28465 5.73452 6.16166 5.63087 6.05808L3.65887 4.08682C3.44971 3.87772 3.16606 3.76025 2.8703 3.76025C2.57454 3.76025 2.29089 3.87772 2.08172 4.08682L1.61326 4.55454C1.0746 5.09303 0.735765 5.79918 0.652751 6.55631C0.569738 7.31343 0.747511 8.07623 1.1567 8.71861L1.16116 8.72605C3.32216 11.9233 6.07605 14.6767 9.27372 16.8371Z" stroke="white" stroke-width="1.5" stroke-linecap="round" stroke-linejoin="round"/>
<path d="M13.4585 8.44197C14.2307 8.44197 14.9854 8.21302 15.6274 7.78404C16.2694 7.35509 16.7697 6.7454 17.0652 6.03206C17.3607 5.31873 17.438 4.5338 17.2874 3.77652C17.1367 3.01925 16.7649 2.32365 16.219 1.77769C15.673 1.23173 14.9774 0.85992 14.2201 0.709291C13.4628 0.55866 12.6779 0.635969 11.9646 0.931438C11.2513 1.22691 10.6416 1.72728 10.2126 2.36927C9.78364 3.01125 9.55469 3.76602 9.55469 4.53812V5.65351" stroke="white" stroke-width="1.5" stroke-linecap="round" stroke-linejoin="round"/>
<path d="M7.32422 3.42285L9.55499 5.65362L11.7858 3.42285" stroke="white" stroke-width="1.5" stroke-linecap="round" stroke-linejoin="round"/>
</g>
<defs>
<clipPath id="clip0_459_1640">
<rect width="17.8462" height="17.8462" fill="white" transform="translate(0.0742188 0.0766602)"/>
</clipPath>
</defs>
</svg>
