<svg width="30" height="30" viewBox="0 0 30 30" fill="none" xmlns="http://www.w3.org/2000/svg">
<path d="M20 14.9292H28.75" stroke="#0B0B0B" stroke-width="1.5" stroke-miterlimit="10" stroke-linecap="round" stroke-linejoin="round"/>
<path d="M28.75 4.04333H24.375C23.625 4.04333 23.125 4.54097 23.125 5.28743V24.5709C23.125 25.3174 23.625 25.815 24.375 25.815H28.75" stroke="#0B0B0B" stroke-width="1.5" stroke-miterlimit="10" stroke-linecap="round" stroke-linejoin="round"/>
<path d="M17.125 24.5708C16 21.3362 12.875 18.9724 9.25 18.9724C5.625 18.9724 2.375 21.3362 1.25 24.5708" stroke="#0B0B0B" stroke-width="1.5" stroke-miterlimit="10" stroke-linecap="round" stroke-linejoin="round"/>
<path d="M9.12511 7.77562V4.04333M2.25 11.3835H16M4 12.752C4.125 15.489 6.37499 17.7284 9.12499 17.7284C12 17.7284 14.25 15.489 14.25 12.6276V10.3882C14.25 7.52681 12 5.28743 9.12499 5.28743C6.37499 5.28743 4.125 7.5268 4 10.2638V12.752Z" stroke="#0B0B0B" stroke-width="1.5" stroke-miterlimit="10" stroke-linecap="round" stroke-linejoin="round"/>
</svg>
