<svg width="30" height="30" viewBox="0 0 30 30" fill="none" xmlns="http://www.w3.org/2000/svg">
<g clip-path="url(#clip0_1831_3613)">
<path d="M13.1829 3.04755C13.4123 3.30216 13.6925 3.50575 14.0057 3.64511C14.3188 3.78446 14.6577 3.85648 15.0004 3.85648C15.343 3.85648 15.682 3.78446 15.995 3.64511C16.3082 3.50575 16.5885 3.30216 16.8179 3.04755L18.0004 1.75005C18.3393 1.37498 18.7859 1.11397 19.2792 1.00287C19.7723 0.891768 20.2877 0.936008 20.7547 1.12952C21.2217 1.32303 21.6174 1.65633 21.8874 2.08366C22.1574 2.511 22.2885 3.01144 22.2629 3.5163L22.1742 5.26629C22.1569 5.60768 22.2115 5.94887 22.3342 6.2679C22.4569 6.58692 22.6452 6.87671 22.8867 7.11859C23.1282 7.36046 23.4177 7.54906 23.7365 7.67225C24.0554 7.79543 24.3965 7.85046 24.7379 7.8338L26.4879 7.74505C26.9924 7.72018 27.4923 7.85194 27.919 8.12227C28.3457 8.39262 28.6784 8.78831 28.8714 9.25512C29.0644 9.72194 29.1083 10.237 28.9972 10.7298C28.886 11.2225 28.6252 11.6688 28.2504 12.0076L26.9479 13.1825C26.6935 13.4122 26.4903 13.6928 26.3512 14.0059C26.212 14.3191 26.1402 14.658 26.1402 15.0006C26.1402 15.3434 26.212 15.6822 26.3512 15.9954C26.4903 16.3086 26.6935 16.5891 26.9479 16.8187L28.2504 17.9938C28.6254 18.3328 28.8864 18.7794 28.9975 19.2725C29.1087 19.7656 29.0644 20.2811 28.8709 20.7481C28.6774 21.2151 28.3442 21.6108 27.9168 21.8808C27.4894 22.1509 26.989 22.282 26.4842 22.2563L24.7342 22.1675C24.392 22.15 24.0499 22.2044 23.7302 22.3272C23.4104 22.4502 23.12 22.6389 22.8778 22.8811C22.6355 23.1234 22.4468 23.4139 22.3239 23.7336C22.2009 24.0534 22.1465 24.3954 22.1642 24.7375L22.2529 26.4875C22.2753 26.9899 22.1424 27.4869 21.8725 27.9111C21.6027 28.3354 21.2087 28.6661 20.7442 28.8586C20.2797 29.0513 19.7672 29.096 19.2763 28.9871C18.7854 28.8782 18.3399 28.6209 18.0004 28.25L16.8242 26.9488C16.5945 26.6945 16.3142 26.4912 16.001 26.3521C15.688 26.213 15.3493 26.1411 15.0067 26.1411C14.664 26.1411 14.3253 26.213 14.0122 26.3521C13.6992 26.4912 13.4188 26.6945 13.1892 26.9488L12.0079 28.25C11.6689 28.6226 11.2232 28.8816 10.7317 28.9917C10.2401 29.1017 9.72659 29.0576 9.26106 28.8651C8.79554 28.6728 8.4007 28.3414 8.13035 27.9164C7.86 27.4914 7.72732 26.9932 7.75039 26.49L7.84039 24.74C7.85799 24.3979 7.80356 24.0559 7.68064 23.7361C7.5577 23.4164 7.36901 23.1259 7.12676 22.8836C6.88451 22.6414 6.5941 22.4528 6.27432 22.3298C5.95455 22.2069 5.61252 22.1525 5.27039 22.17L3.52039 22.2587C3.01574 22.2851 2.51531 22.1546 2.08781 21.8851C1.6603 21.6158 1.32667 21.2206 1.13274 20.754C0.9388 20.2873 0.894052 19.7721 1.00464 19.279C1.11523 18.7859 1.37574 18.3391 1.75039 18L3.05164 16.825C3.30595 16.5954 3.50924 16.3149 3.64837 16.0016C3.78751 15.6885 3.85941 15.3496 3.85941 15.0069C3.85941 14.6642 3.78751 14.3254 3.64837 14.0121C3.50924 13.699 3.30595 13.4185 3.05164 13.1887L1.75039 12.0076C1.37695 11.6688 1.11724 11.223 1.00676 10.731C0.896286 10.2391 0.940431 9.72506 1.13316 9.25916C1.3259 8.79326 1.65781 8.39826 2.08354 8.12814C2.50926 7.85803 3.00802 7.72597 3.51164 7.75005L5.26164 7.8388C5.60442 7.85681 5.94716 7.80254 6.26761 7.67946C6.58805 7.5564 6.87902 7.36731 7.12162 7.12448C7.36422 6.88164 7.55304 6.59048 7.67579 6.26993C7.79854 5.94936 7.85249 5.60656 7.83414 5.2638L7.75039 3.51254C7.72677 3.00913 7.85905 2.51068 8.12919 2.08523C8.39932 1.65976 8.79416 1.32801 9.25981 1.13525C9.72546 0.94248 10.2392 0.898081 10.7311 1.00811C11.2229 1.11814 11.6688 1.37724 12.0079 1.75005L13.1829 3.04755Z" stroke="#0B0B0B" stroke-width="1.5" stroke-linecap="round" stroke-linejoin="round"/>
<path d="M9.375 15.0012C9.375 16.4931 9.96764 17.9237 11.0225 18.9787C12.0774 20.0336 13.5081 20.6262 15 20.6262C16.4919 20.6262 17.9226 20.0336 18.9775 18.9787C20.0324 17.9237 20.625 16.4931 20.625 15.0012C20.625 13.5094 20.0324 12.0786 18.9775 11.0237C17.9226 9.96885 16.4919 9.37622 15 9.37622C13.5081 9.37622 12.0774 9.96885 11.0225 11.0237C9.96764 12.0786 9.375 13.5094 9.375 15.0012Z" stroke="#0B0B0B" stroke-width="1.5" stroke-linecap="round" stroke-linejoin="round"/>
</g>
<defs>
<clipPath id="clip0_1831_3613">
<rect width="30" height="30" fill="white"/>
</clipPath>
</defs>
</svg>
