<svg width="107" height="33" viewBox="0 0 107 33" fill="none" xmlns="http://www.w3.org/2000/svg">
<path d="M32.4499 26L26.0599 11.51H30.3799L34.9699 23.45H32.8399L37.4599 11.51H41.6299L35.2699 26H32.4499ZM43.443 26V11.51H47.403V26H43.443ZM45.423 9.17C44.783 9.17 44.253 8.96 43.833 8.54C43.413 8.1 43.203 7.56 43.203 6.92C43.203 6.3 43.413 5.77 43.833 5.33C44.253 4.89 44.783 4.67 45.423 4.67C46.083 4.67 46.613 4.89 47.013 5.33C47.433 5.77 47.643 6.3 47.643 6.92C47.643 7.56 47.433 8.1 47.013 8.54C46.613 8.96 46.083 9.17 45.423 9.17ZM50.8844 26V11.51H54.8144V26H50.8844ZM54.8144 17.99L53.2844 16.97C53.4644 15.19 53.9844 13.79 54.8444 12.77C55.7044 11.73 56.9444 11.21 58.5644 11.21C59.2644 11.21 59.8944 11.33 60.4544 11.57C61.0144 11.79 61.5244 12.16 61.9844 12.68L59.5244 15.5C59.3044 15.26 59.0344 15.08 58.7144 14.96C58.4144 14.84 58.0644 14.78 57.6644 14.78C56.8244 14.78 56.1344 15.05 55.5944 15.59C55.0744 16.11 54.8144 16.91 54.8144 17.99ZM65.5828 26V5.48H69.5128V26H65.5828ZM62.1928 14.96V11.51H72.9028V14.96H62.1928ZM81.2929 26.3C80.0129 26.3 78.8729 26.03 77.8729 25.49C76.8929 24.95 76.1229 24.2 75.5629 23.24C75.0029 22.28 74.7229 21.17 74.7229 19.91V11.51H78.6829V19.82C78.6829 20.42 78.7829 20.94 78.9829 21.38C79.1829 21.8 79.4829 22.12 79.8829 22.34C80.2829 22.56 80.7529 22.67 81.2929 22.67C82.1129 22.67 82.7529 22.42 83.2129 21.92C83.6729 21.42 83.9029 20.72 83.9029 19.82V11.51H87.8329V19.91C87.8329 21.19 87.5529 22.31 86.9929 23.27C86.4529 24.23 85.6829 24.98 84.6829 25.52C83.7029 26.04 82.5729 26.3 81.2929 26.3ZM99.0025 26.3C97.9625 26.3 97.0225 26.09 96.1825 25.67C95.3425 25.23 94.6725 24.64 94.1725 23.9C93.6725 23.16 93.4025 22.31 93.3625 21.35V16.22C93.4025 15.26 93.6725 14.41 94.1725 13.67C94.6925 12.91 95.3625 12.31 96.1825 11.87C97.0225 11.43 97.9625 11.21 99.0025 11.21C100.343 11.21 101.543 11.54 102.603 12.2C103.663 12.86 104.493 13.76 105.093 14.9C105.713 16.04 106.023 17.33 106.023 18.77C106.023 20.19 105.713 21.47 105.093 22.61C104.493 23.75 103.663 24.65 102.603 25.31C101.543 25.97 100.343 26.3 99.0025 26.3ZM90.9625 32.06V11.51H94.8925V15.32L94.2325 18.83L94.8625 22.34V32.06H90.9625ZM98.3125 22.67C99.0325 22.67 99.6725 22.51 100.233 22.19C100.793 21.85 101.223 21.39 101.523 20.81C101.843 20.21 102.003 19.52 102.003 18.74C102.003 17.98 101.843 17.31 101.523 16.73C101.223 16.13 100.793 15.67 100.233 15.35C99.6725 15.01 99.0325 14.84 98.3125 14.84C97.6125 14.84 96.9825 15.01 96.4225 15.35C95.8625 15.67 95.4225 16.13 95.1025 16.73C94.8025 17.31 94.6525 17.98 94.6525 18.74C94.6525 19.52 94.8025 20.21 95.1025 20.81C95.4225 21.39 95.8525 21.85 96.3925 22.19C96.9525 22.51 97.5925 22.67 98.3125 22.67Z" fill="#ACADB7"/>
<path d="M14.2857 5.77775L8.57135 0V5.77775H0V20.2223L5.71432 26V11.5555H14.2857V20.2223L20 26V11.5555L14.2857 5.77775Z" fill="#ACADB7"/>
</svg>
