<svg width="26" height="26" viewBox="0 0 26 26" fill="none" xmlns="http://www.w3.org/2000/svg">
<g clip-path="url(#clip0_1829_1586)">
<path d="M17.335 13.1113H24.7268" stroke="#0B0B0B" stroke-width="1.5" stroke-miterlimit="10" stroke-linecap="round" stroke-linejoin="round"/>
<path d="M24.7265 3.87183H21.0306C20.397 3.87183 19.9746 4.29421 19.9746 4.9278V21.2953C19.9746 21.9289 20.397 22.3513 21.0306 22.3513H24.7265" stroke="#0B0B0B" stroke-width="1.5" stroke-miterlimit="10" stroke-linecap="round" stroke-linejoin="round"/>
<path d="M14.9059 21.2951C13.9556 18.5496 11.3156 16.5432 8.25333 16.5432C5.19101 16.5432 2.44549 18.5496 1.49512 21.2951" stroke="#0B0B0B" stroke-width="1.5" stroke-miterlimit="10" stroke-linecap="round" stroke-linejoin="round"/>
<path d="M8.14778 7.03974V3.87183M2.33984 10.102H13.9555M3.8182 11.2636C3.9238 13.5868 5.82454 15.4875 8.14767 15.4875C10.5764 15.4875 12.4771 13.5868 12.4771 11.158V9.25728C12.4771 6.82855 10.5764 4.9278 8.14767 4.9278C5.82454 4.9278 3.9238 6.82854 3.8182 9.15168V11.2636Z" stroke="#0B0B0B" stroke-width="1.5" stroke-miterlimit="10" stroke-linecap="round" stroke-linejoin="round"/>
</g>
<defs>
<clipPath id="clip0_1829_1586">
<rect width="25.3433" height="25.3433" fill="white" transform="translate(0.439453 0.439697)"/>
</clipPath>
</defs>
</svg>
