<svg width="30" height="30" viewBox="0 0 30 30" fill="none" xmlns="http://www.w3.org/2000/svg">
<path d="M20 14.9292H28.75" stroke="#0B0B0B" stroke-width="1.5" stroke-miterlimit="10" stroke-linecap="round" stroke-linejoin="round"/>
<path d="M28.75 4.04321H24.375C23.625 4.04321 23.125 4.54085 23.125 5.28731V24.5708C23.125 25.3173 23.625 25.8149 24.375 25.8149H28.75" stroke="#0B0B0B" stroke-width="1.5" stroke-miterlimit="10" stroke-linecap="round" stroke-linejoin="round"/>
<path d="M17.125 24.5708C16 21.3362 12.875 18.9724 9.25 18.9724C5.625 18.9724 2.375 21.3362 1.25 24.5708" stroke="#0B0B0B" stroke-width="1.5" stroke-miterlimit="10" stroke-linecap="round" stroke-linejoin="round"/>
<path d="M9.12511 7.7755V4.04321M2.25 11.3834H16M4 12.7519C4.125 15.4889 6.37499 17.7283 9.12499 17.7283C12 17.7283 14.25 15.4889 14.25 12.6275V10.3881C14.25 7.52668 12 5.28731 9.12499 5.28731C6.37499 5.28731 4.125 7.52668 4 10.2637V12.7519Z" stroke="#0B0B0B" stroke-width="1.5" stroke-miterlimit="10" stroke-linecap="round" stroke-linejoin="round"/>
</svg>
