<svg width="34" height="34" viewBox="0 0 34 34" fill="none" xmlns="http://www.w3.org/2000/svg">
<g clip-path="url(#clip0_380_161)">
<path d="M4.50391 21.7631L5.97016 6.36108H12.6993L13.9347 19.3222" stroke="white" stroke-width="1.5" stroke-linecap="round" stroke-linejoin="round"/>
<path d="M1.0625 32.9236H32.9375V16.4336C32.9375 16.017 32.772 15.6173 32.4774 15.3227C32.1827 15.028 31.7831 14.8625 31.3664 14.8625C31.2335 14.8625 31.1011 14.8797 30.9726 14.9135L2.125 22.3836C1.82098 22.4624 1.55179 22.64 1.35972 22.8885C1.16765 23.137 1.0636 23.4423 1.06392 23.7564L1.0625 32.9236Z" stroke="white" stroke-width="1.5" stroke-linecap="round" stroke-linejoin="round"/>
<path d="M11.3408 1.24549C12.803 1.2194 14.2525 1.51995 15.5837 2.12524C26.1082 6.6189 30.4587 1.0769 30.4587 1.0769" stroke="white" stroke-width="1.5" stroke-linecap="round" stroke-linejoin="round"/>
<path d="M27.9788 32.925H20.8955V26.55C20.8955 26.1743 21.0448 25.8139 21.3104 25.5482C21.5761 25.2826 21.9365 25.1333 22.3122 25.1333H26.5622C26.9379 25.1333 27.2983 25.2826 27.5639 25.5482C27.8295 25.8139 27.9788 26.1743 27.9788 26.55V32.925Z" stroke="white" stroke-width="1.5" stroke-linecap="round" stroke-linejoin="round"/>
<path d="M15.9375 27.2568H13.8125" stroke="white" stroke-width="1.5" stroke-linecap="round" stroke-linejoin="round"/>
<path d="M8.85449 27.2568H6.72949" stroke="white" stroke-width="1.5" stroke-linecap="round" stroke-linejoin="round"/>
</g>
<defs>
<clipPath id="clip0_380_161">
<rect width="34" height="34" fill="white" transform="translate(0 0.000244141)"/>
</clipPath>
</defs>
</svg>
