<svg width="33" height="33" viewBox="0 0 33 33" fill="none" xmlns="http://www.w3.org/2000/svg">
<g clip-path="url(#clip0_380_172)">
<path d="M12.7186 25.9548L3.76465 19.5171" stroke="white" stroke-width="1.5" stroke-linecap="round" stroke-linejoin="round"/>
<path d="M7.89258 15.8416L14.9642 21.0844" stroke="white" stroke-width="1.5" stroke-linecap="round" stroke-linejoin="round"/>
<path d="M1.03223 16.1579C1.03223 17.0696 1.39439 17.9439 2.03905 18.5887C2.6837 19.2333 3.55805 19.5954 4.46973 19.5954C5.38141 19.5954 6.25575 19.2333 6.9004 18.5887C7.54506 17.9439 7.90723 17.0696 7.90723 16.1579C7.90723 15.2463 7.54506 14.372 6.9004 13.7273C6.25575 13.0826 5.38141 12.7205 4.46973 12.7205C3.55805 12.7205 2.6837 13.0826 2.03905 13.7273C1.39439 14.372 1.03223 15.2463 1.03223 16.1579Z" stroke="white" stroke-width="1.5" stroke-linecap="round" stroke-linejoin="round"/>
<path d="M7.75098 15.132L15.4662 7.61768" stroke="white" stroke-width="1.5" stroke-linecap="round" stroke-linejoin="round"/>
<path d="M14.2892 2.16992L1.72852 14.0939" stroke="white" stroke-width="1.5" stroke-linecap="round" stroke-linejoin="round"/>
<path d="M13.4053 4.46899C13.4053 5.38067 13.7674 6.25502 14.4122 6.89968C15.0568 7.54433 15.9311 7.90649 16.8427 7.90649C17.7545 7.90649 18.6287 7.54433 19.2735 6.89968C19.9181 6.25502 20.2802 5.38067 20.2802 4.46899C20.2802 3.55731 19.9181 2.68297 19.2735 2.03831C18.6287 1.39366 17.7545 1.03149 16.8427 1.03149C15.9311 1.03149 15.0568 1.39366 14.4122 2.03831C13.7674 2.68297 13.4053 3.55731 13.4053 4.46899Z" stroke="white" stroke-width="1.5" stroke-linecap="round" stroke-linejoin="round"/>
<path d="M22.4047 10.1504L19.2422 6.91919" stroke="white" stroke-width="1.5" stroke-linecap="round" stroke-linejoin="round"/>
<path d="M21.6562 12.033C21.6562 12.7623 21.946 13.4618 22.4617 13.9775C22.9775 14.4932 23.677 14.7829 24.4062 14.7829C25.1355 14.7829 25.835 14.4932 26.3508 13.9775C26.8665 13.4618 27.1562 12.7623 27.1562 12.033C27.1562 11.3036 26.8665 10.6041 26.3508 10.0884C25.835 9.57269 25.1355 9.28296 24.4062 9.28296C23.677 9.28296 22.9775 9.57269 22.4617 10.0884C21.946 10.6041 21.6562 11.3036 21.6562 12.033Z" stroke="white" stroke-width="1.5" stroke-linecap="round" stroke-linejoin="round"/>
<path d="M27.0879 11.4127C27.6837 11.3014 28.2967 11.3227 28.8832 11.4752C29.4699 11.6277 30.0157 11.9076 30.4819 12.295C30.9481 12.6824 31.3232 13.1678 31.5804 13.7166C31.8377 14.2654 31.9708 14.8642 31.9704 15.4703" stroke="white" stroke-width="1.5" stroke-linecap="round" stroke-linejoin="round"/>
<path d="M27.8442 19.5953C27.2381 19.5955 26.6396 19.4622 26.091 19.2048C25.5422 18.9475 25.0571 18.5724 24.6698 18.1061C24.2826 17.64 24.0028 17.0943 23.8504 16.5078C23.6979 15.9213 23.6766 15.3083 23.788 14.7126" stroke="white" stroke-width="1.5" stroke-linecap="round" stroke-linejoin="round"/>
<path d="M1.375 31.9705H31.625" stroke="white" stroke-width="1.5" stroke-linecap="round" stroke-linejoin="round"/>
<path d="M12.7188 31.9704V24.7502C12.7188 23.6563 13.1533 22.607 13.927 21.8335C14.7005 21.0599 15.7498 20.6252 16.8438 20.6252C17.9377 20.6252 18.987 21.0599 19.7605 21.8335C20.5341 22.607 20.9688 23.6563 20.9688 24.7502V31.969" stroke="white" stroke-width="1.5" stroke-linecap="round" stroke-linejoin="round"/>
</g>
<defs>
<clipPath id="clip0_380_172">
<rect width="33" height="33" fill="white" transform="translate(0 0.000244141)"/>
</clipPath>
</defs>
</svg>
