<svg width="22" height="22" viewBox="0 0 22 22" fill="none" xmlns="http://www.w3.org/2000/svg">
<path fill-rule="evenodd" clip-rule="evenodd" d="M6.28546 2.42341C7.12143 2.35685 7.9151 2.02825 8.55346 1.48441C9.27454 0.869804 10.191 0.532227 11.1385 0.532227C12.0859 0.532227 13.0024 0.869804 13.7235 1.48441C14.3617 2.02855 15.1554 2.3575 15.9915 2.42441C16.9359 2.49961 17.8226 2.90881 18.4926 3.57862C19.1626 4.24843 19.572 5.13503 19.6475 6.07941C19.7135 6.91541 20.0425 7.70941 20.5875 8.34741C21.2019 9.06857 21.5393 9.985 21.5393 10.9324C21.5393 11.8798 21.2019 12.7962 20.5875 13.5174C20.0433 14.1556 19.7143 14.9493 19.6475 15.7854C19.572 16.7298 19.1626 17.6164 18.4926 18.2862C17.8226 18.956 16.9359 19.3652 15.9915 19.4404C15.1554 19.5073 14.3617 19.8363 13.7235 20.3804C13.0024 20.995 12.0859 21.3326 11.1385 21.3326C10.191 21.3326 9.27454 20.995 8.55346 20.3804C7.91522 19.8362 7.12155 19.5072 6.28546 19.4404C5.34125 19.365 4.45477 18.9557 3.78498 18.2859C3.1152 17.6161 2.70589 16.7296 2.63046 15.7854C2.56362 14.9493 2.23467 14.1556 1.69046 13.5174C1.07586 12.7963 0.738281 11.8799 0.738281 10.9324C0.738281 9.98494 1.07586 9.06848 1.69046 8.34741C2.23467 7.70917 2.56362 6.91549 2.63046 6.07941C2.70567 5.13501 3.11487 4.2483 3.78468 3.57831C4.45449 2.90832 5.34109 2.49887 6.28546 2.42341ZM15.9575 9.25141C16.0827 9.13175 16.1828 8.98827 16.2518 8.8294C16.3208 8.67053 16.3574 8.49947 16.3593 8.32627C16.3613 8.15307 16.3286 7.98122 16.2633 7.82082C16.1979 7.66042 16.1011 7.5147 15.9787 7.39222C15.8562 7.26974 15.7105 7.17297 15.55 7.1076C15.3896 7.04222 15.2178 7.00956 15.0446 7.01154C14.8714 7.01351 14.7003 7.05008 14.5415 7.11909C14.3826 7.1881 14.2391 7.28817 14.1195 7.41341L9.83946 11.6934L8.15746 10.0134C7.91188 9.77877 7.58422 9.64957 7.2446 9.65344C6.90497 9.65731 6.58034 9.79395 6.34017 10.0341C6.10001 10.2743 5.96337 10.5989 5.9595 10.9385C5.95563 11.2782 6.08483 11.6058 6.31946 11.8514L8.91946 14.4514C9.16324 14.6951 9.4938 14.8319 9.83846 14.8319C10.1831 14.8319 10.5137 14.6951 10.7575 14.4514L15.9575 9.25141Z" fill="#0B0B0B"/>
</svg>
