<svg width="14" height="14" viewBox="0 0 14 14" fill="none" xmlns="http://www.w3.org/2000/svg">
<path fill-rule="evenodd" clip-rule="evenodd" d="M13.7722 1.32775C14.0759 1.02401 14.0759 0.531549 13.7722 0.227803C13.4685 -0.0759344 12.976 -0.0759344 12.6723 0.227803L8.04844 4.85161L4.72377 0.317839C4.57725 0.118043 4.34432 0 4.09656 0H0.777778C0.484688 0 0.216479 0.164764 0.0840001 0.426207C-0.0484866 0.687649 -0.02275 1.00137 0.15057 1.23772L5.02085 7.8792L0.227803 12.6723C-0.0759344 12.976 -0.0759344 13.4685 0.227803 13.7722C0.531549 14.0759 1.02401 14.0759 1.32775 13.7722L5.95156 9.14838L9.27625 13.6822C9.42278 13.8819 9.65572 14 9.90345 14H13.2222C13.5153 14 13.7835 13.8353 13.916 13.5738C14.0485 13.3124 14.0228 12.9986 13.8494 12.7622L8.97913 6.1208L13.7722 1.32775ZM7.28801 6.44506C7.31205 6.48511 7.33997 6.52338 7.37186 6.55947L11.6874 12.4444H10.2976L2.31263 1.55556H3.70242L7.28801 6.44506Z" fill="white"/>
</svg>
