<svg width="15" height="16" viewBox="0 0 15 16" fill="none" xmlns="http://www.w3.org/2000/svg">
<path d="M11.075 3.97383H11.0815M4.25 1.04883H10.75C12.5449 1.04883 14 2.5039 14 4.29883V10.7988C14 12.5938 12.5449 14.0488 10.75 14.0488H4.25C2.45507 14.0488 1 12.5938 1 10.7988V4.29883C1 2.5039 2.45507 1.04883 4.25 1.04883ZM10.1 7.13933C10.1802 7.68029 10.0878 8.23277 9.83594 8.71819C9.58407 9.20361 9.18554 9.59725 8.69706 9.84312C8.20857 10.089 7.65499 10.1746 7.11506 10.0877C6.57513 10.0008 6.07634 9.74588 5.68965 9.35918C5.30295 8.97248 5.04803 8.4737 4.96114 7.93377C4.87426 7.39384 4.95984 6.84026 5.20571 6.35177C5.45158 5.86328 5.84522 5.46476 6.33064 5.21288C6.81606 4.96101 7.36854 4.86861 7.9095 4.94883C8.4613 5.03065 8.97215 5.28778 9.3666 5.68223C9.76105 6.07668 10.0182 6.58753 10.1 7.13933Z" stroke="white" stroke-width="2" stroke-linecap="round" stroke-linejoin="round"/>
</svg>
